<svg width="183" height="21" viewBox="0 0 183 21" fill="none" xmlns="http://www.w3.org/2000/svg">
<path d="M0.242188 20V0.394531H7.1875C14.151 0.394531 17.6328 3.58008 17.6328 9.95117C17.6328 13.0046 16.6803 15.4427 14.7754 17.2656C12.8796 19.0885 10.3503 20 7.1875 20H0.242188ZM4.6582 3.99023V16.418H6.8457C8.75977 16.418 10.2591 15.8438 11.3438 14.6953C12.4375 13.5469 12.9844 11.9837 12.9844 10.0059C12.9844 8.13737 12.4421 6.66992 11.3574 5.60352C10.2819 4.52799 8.76888 3.99023 6.81836 3.99023H4.6582ZM32.6445 20H20.8867V0.394531H32.1934V3.99023H25.3027V8.35156H31.7148V11.9336H25.3027V16.418H32.6445V20ZM52.25 0.394531L45.4961 20H40.4922L33.8203 0.394531H38.5781L42.666 14.0391C42.8848 14.7773 43.0169 15.429 43.0625 15.9941H43.1445C43.2083 15.3835 43.3496 14.7135 43.5684 13.9844L47.6289 0.394531H52.25ZM76.3945 19.3027C74.9635 19.9954 73.0951 20.3418 70.7891 20.3418C67.7812 20.3418 65.416 19.4577 63.6934 17.6895C61.9707 15.9212 61.1094 13.5651 61.1094 10.6211C61.1094 7.48568 62.0755 4.94271 64.0078 2.99219C65.9492 1.04167 68.4648 0.0664062 71.5547 0.0664062C73.4688 0.0664062 75.082 0.307943 76.3945 0.791016V5.04297C75.082 4.25911 73.5872 3.86719 71.9102 3.86719C70.069 3.86719 68.5833 4.44596 67.4531 5.60352C66.3229 6.76107 65.7578 8.32878 65.7578 10.3066C65.7578 12.2025 66.291 13.7155 67.3574 14.8457C68.4238 15.9668 69.8594 16.5273 71.6641 16.5273C73.3867 16.5273 74.9635 16.1081 76.3945 15.2695V19.3027ZM87.7422 20.3418C84.9349 20.3418 82.6471 19.4303 80.8789 17.6074C79.1107 15.7754 78.2266 13.3919 78.2266 10.457C78.2266 7.35807 79.1243 4.85156 80.9199 2.9375C82.7155 1.02344 85.0944 0.0664062 88.0566 0.0664062C90.8548 0.0664062 93.1152 0.982422 94.8379 2.81445C96.5697 4.64648 97.4355 7.06185 97.4355 10.0605C97.4355 13.1413 96.5378 15.625 94.7422 17.5117C92.9557 19.3984 90.6224 20.3418 87.7422 20.3418ZM87.9336 3.86719C86.3841 3.86719 85.1536 4.45052 84.2422 5.61719C83.3307 6.77474 82.875 8.31055 82.875 10.2246C82.875 12.166 83.3307 13.7018 84.2422 14.832C85.1536 15.9622 86.3477 16.5273 87.8242 16.5273C89.3464 16.5273 90.554 15.9805 91.4473 14.8867C92.3405 13.7839 92.7871 12.2572 92.7871 10.3066C92.7871 8.27409 92.3542 6.69271 91.4883 5.5625C90.6224 4.43229 89.4375 3.86719 87.9336 3.86719ZM116.686 11.5098C116.686 17.3978 113.942 20.3418 108.455 20.3418C103.132 20.3418 100.471 17.4661 100.471 11.7148V0.394531H104.9V11.7695C104.9 14.9414 106.14 16.5273 108.619 16.5273C111.053 16.5273 112.27 14.9961 112.27 11.9336V0.394531H116.686V11.5098ZM137.412 20H132.34L129.291 14.9551C129.063 14.5723 128.844 14.2305 128.635 13.9297C128.425 13.6289 128.211 13.3737 127.992 13.1641C127.783 12.9453 127.559 12.7812 127.322 12.6719C127.094 12.5534 126.844 12.4941 126.57 12.4941H125.381V20H120.965V0.394531H127.965C132.723 0.394531 135.102 2.17188 135.102 5.72656C135.102 6.41016 134.997 7.04362 134.787 7.62695C134.577 8.20117 134.281 8.7207 133.898 9.18555C133.516 9.65039 133.051 10.0514 132.504 10.3887C131.966 10.7259 131.365 10.9902 130.699 11.1816V11.2363C130.991 11.3275 131.273 11.4779 131.547 11.6875C131.82 11.888 132.085 12.125 132.34 12.3984C132.595 12.6719 132.837 12.9681 133.064 13.2871C133.301 13.597 133.516 13.9023 133.707 14.2031L137.412 20ZM125.381 3.70312V9.1582H127.295C128.243 9.1582 129.004 8.88477 129.578 8.33789C130.161 7.7819 130.453 7.09375 130.453 6.27344C130.453 4.5599 129.428 3.70312 127.377 3.70312H125.381ZM138.355 19.248V14.873C139.148 15.5384 140.01 16.0397 140.939 16.377C141.869 16.7051 142.808 16.8691 143.756 16.8691C144.312 16.8691 144.795 16.819 145.205 16.7188C145.624 16.6185 145.971 16.4818 146.244 16.3086C146.527 16.1263 146.736 15.9167 146.873 15.6797C147.01 15.4336 147.078 15.1693 147.078 14.8867C147.078 14.5039 146.969 14.1621 146.75 13.8613C146.531 13.5605 146.23 13.2826 145.848 13.0273C145.474 12.7721 145.027 12.526 144.508 12.2891C143.988 12.0521 143.428 11.8105 142.826 11.5645C141.295 10.9264 140.151 10.1471 139.395 9.22656C138.647 8.30599 138.273 7.19401 138.273 5.89062C138.273 4.86979 138.479 3.99479 138.889 3.26562C139.299 2.52734 139.855 1.92122 140.557 1.44727C141.268 0.973307 142.088 0.626953 143.018 0.408203C143.947 0.180339 144.932 0.0664062 145.971 0.0664062C146.992 0.0664062 147.894 0.130208 148.678 0.257812C149.471 0.376302 150.2 0.563151 150.865 0.818359V4.90625C150.537 4.67839 150.177 4.47786 149.785 4.30469C149.402 4.13151 149.006 3.99023 148.596 3.88086C148.186 3.76237 147.775 3.67578 147.365 3.62109C146.964 3.56641 146.581 3.53906 146.217 3.53906C145.715 3.53906 145.26 3.58919 144.85 3.68945C144.439 3.7806 144.093 3.91276 143.811 4.08594C143.528 4.25911 143.309 4.46875 143.154 4.71484C142.999 4.95182 142.922 5.2207 142.922 5.52148C142.922 5.84961 143.008 6.14583 143.182 6.41016C143.355 6.66536 143.601 6.91146 143.92 7.14844C144.239 7.3763 144.626 7.60417 145.082 7.83203C145.538 8.05078 146.053 8.27865 146.627 8.51562C147.411 8.84375 148.113 9.19466 148.732 9.56836C149.361 9.93294 149.899 10.3477 150.346 10.8125C150.792 11.2773 151.134 11.8105 151.371 12.4121C151.608 13.0046 151.727 13.6973 151.727 14.4902C151.727 15.584 151.517 16.5046 151.098 17.252C150.688 17.9902 150.127 18.5918 149.416 19.0566C148.705 19.5124 147.876 19.8405 146.928 20.041C145.989 20.2415 144.995 20.3418 143.947 20.3418C142.872 20.3418 141.846 20.2507 140.871 20.0684C139.905 19.8861 139.066 19.6126 138.355 19.248ZM166.711 20H154.953V0.394531H166.26V3.99023H159.369V8.35156H165.781V11.9336H159.369V16.418H166.711V20ZM168.953 19.248V14.873C169.746 15.5384 170.607 16.0397 171.537 16.377C172.467 16.7051 173.406 16.8691 174.354 16.8691C174.91 16.8691 175.393 16.819 175.803 16.7188C176.222 16.6185 176.568 16.4818 176.842 16.3086C177.124 16.1263 177.334 15.9167 177.471 15.6797C177.607 15.4336 177.676 15.1693 177.676 14.8867C177.676 14.5039 177.566 14.1621 177.348 13.8613C177.129 13.5605 176.828 13.2826 176.445 13.0273C176.072 12.7721 175.625 12.526 175.105 12.2891C174.586 12.0521 174.025 11.8105 173.424 11.5645C171.893 10.9264 170.749 10.1471 169.992 9.22656C169.245 8.30599 168.871 7.19401 168.871 5.89062C168.871 4.86979 169.076 3.99479 169.486 3.26562C169.896 2.52734 170.452 1.92122 171.154 1.44727C171.865 0.973307 172.686 0.626953 173.615 0.408203C174.545 0.180339 175.529 0.0664062 176.568 0.0664062C177.589 0.0664062 178.492 0.130208 179.275 0.257812C180.068 0.376302 180.798 0.563151 181.463 0.818359V4.90625C181.135 4.67839 180.775 4.47786 180.383 4.30469C180 4.13151 179.604 3.99023 179.193 3.88086C178.783 3.76237 178.373 3.67578 177.963 3.62109C177.562 3.56641 177.179 3.53906 176.814 3.53906C176.313 3.53906 175.857 3.58919 175.447 3.68945C175.037 3.7806 174.691 3.91276 174.408 4.08594C174.126 4.25911 173.907 4.46875 173.752 4.71484C173.597 4.95182 173.52 5.2207 173.52 5.52148C173.52 5.84961 173.606 6.14583 173.779 6.41016C173.952 6.66536 174.199 6.91146 174.518 7.14844C174.837 7.3763 175.224 7.60417 175.68 7.83203C176.135 8.05078 176.65 8.27865 177.225 8.51562C178.008 8.84375 178.71 9.19466 179.33 9.56836C179.959 9.93294 180.497 10.3477 180.943 10.8125C181.39 11.2773 181.732 11.8105 181.969 12.4121C182.206 13.0046 182.324 13.6973 182.324 14.4902C182.324 15.584 182.115 16.5046 181.695 17.252C181.285 17.9902 180.725 18.5918 180.014 19.0566C179.303 19.5124 178.473 19.8405 177.525 20.041C176.587 20.2415 175.593 20.3418 174.545 20.3418C173.469 20.3418 172.444 20.2507 171.469 20.0684C170.503 19.8861 169.664 19.6126 168.953 19.248Z" fill="white"/>
</svg>
